<svg xmlns="http://www.w3.org/2000/svg" viewBox="0 0 256 256" width="256" height="256"><path d="M64,99c-20.98682,0 -38,-17.01318 -38,-38c0,-20.98682 17.01318,-38 38,-38h100c18.95148,0 34.66269,13.87326 37.53184,32.01799c0.15449,-0.01192 0.31061,-0.01799 0.46816,-0.01799h22c3.31371,0 6,2.68629 6,6v78c0,3.31371 -2.68629,6 -6,6h-94v18.40007c9.12896,1.85308 16,9.9241 16,19.59993v30c0,11.04569 -8.95431,20 -20,20h-4c-11.04569,0 -20,-8.95431 -20,-20v-30c0,-9.67583 6.87104,-17.74685 16,-19.59993v-24.40007c0,-3.31371 2.68629,-6 6,-6l94,0l0,-66h-16c-0.15754,0 -0.31367,-0.00607 -0.46816,-0.01799c-2.86916,18.14474 -18.58036,32.01799 -37.53184,32.01799zM164,87c14.3594,0 26,-11.6406 26,-26c0,-14.3594 -11.6406,-26 -26,-26h-100c-14.3594,0 -26,11.6406 -26,26c0,14.3594 11.6406,26 26,26z" fill="currentColor"/></svg>
